<svg xmlns="http://www.w3.org/2000/svg"
viewBox = "0 0 393 340"
width="393"
height="340">
<g fill="#C029E1" fill-opacity="1.00" stroke="None">
<path d="
M 222.00 78.00 
C 185.67 78.00 149.33 78.00 113.00 78.00
C 108.18 87.10 103.66 96.11 97.92 104.92 C 92.18 113.74 88.95 122.93 82.75 131.75 C 76.56 140.58 74.40 149.38 67.25 158.25 C 60.11 167.13 60.82 175.45 67.70 184.30 C 74.57 193.16 77.08 202.11 83.08 210.92 C 89.08 219.74 92.78 228.91 98.23 237.77 C 103.68 246.63 108.82 254.70 113.00 264.00
C 124.17 264.21 134.77 263.72 146.00 264.00 C 157.23 264.28 167.57 263.46 179.00 264.00 C 190.43 264.54 200.07 262.85 212.00 264.00 C 223.93 265.15 223.36 257.49 230.08 249.08 C 236.80 240.67 227.44 235.20 223.92 246.92 C 220.40 258.65 213.00 258.46 202.00 258.00 C 191.00 257.54 179.78 257.92 169.00 258.00 C 158.22 258.08 146.41 257.33 136.00 258.00 C 125.59 258.67 115.86 258.90 112.30 249.70 C 108.75 240.49 103.72 236.79 100.25 228.75 C 96.79 220.70 91.44 215.41 87.92 208.08 C 84.41 200.74 79.41 193.86 75.92 187.08 C 72.44 180.29 64.80 173.10 69.23 166.23 C 73.66 159.36 77.22 152.13 81.25 145.25 C 85.28 138.37 89.38 131.15 93.69 124.69 C 98.01 118.24 100.43 109.13 105.70 103.70 C 110.96 98.26 109.83 86.49 118.00 84.00 C 126.17 81.51 141.64 84.81 151.00 84.00 C 160.36 83.19 174.54 83.68 184.00 84.00 C 193.46 84.32 208.38 82.28 216.92 84.08 C 225.45 85.88 223.06 99.97 229.00 104.00
C 240.52 98.97 222.80 86.59 222.00 78.00 Z"/>
</g>
<g fill="#40E4E8" fill-opacity="1.00" stroke="None">
<path d="
M 232.00 208.00 
C 245.08 207.36 271.71 212.00 277.69 196.69 C 283.68 181.39 284.28 162.48 277.75 147.25 C 271.22 132.02 244.68 138.23 232.00 137.00
C 230.91 143.51 232.05 149.43 240.00 147.00
C 239.38 155.89 240.82 167.37 240.00 176.00 C 239.18 184.63 244.58 199.62 232.00 197.00
C 232.00 200.67 232.00 204.33 232.00 208.00
M 250.00 197.00 
C 250.00 180.33 250.00 163.67 250.00 147.00
C 268.98 142.64 271.06 157.62 271.00 172.00 C 270.94 186.38 269.65 202.04 250.00 197.00 Z"/>
</g>
<g fill="#4EE5E8" fill-opacity="1.00" stroke="None">
<path d="
M 307.00 178.00 
C 323.93 182.12 346.78 168.81 338.30 149.70 C 329.83 130.58 304.81 138.65 288.00 137.00
C 288.00 140.33 288.00 143.67 288.00 147.00
C 298.81 147.44 312.00 146.11 322.32 147.68 C 332.64 149.25 331.77 164.78 323.00 167.00 C 314.23 169.22 295.53 161.47 296.00 174.00 C 296.48 186.53 295.64 195.77 296.00 208.00
C 314.39 212.28 304.58 188.51 307.00 178.00 Z"/>
</g>
</svg>