<svg xmlns="http://www.w3.org/2000/svg" viewBox="0 0 125 50">
<g transform="translate(0, 0)">
    <path fill="#f1d20e" d="M0 45.26L13.75 9.47L18.85 9.47L33.50 45.26L28.10 45.26L23.93 34.42L8.96 34.42L5.03 45.26L0 45.26M10.33 30.57L22.46 30.57L18.73 20.65Q17.02 16.14 16.19 13.23Q15.50 
    16.67 14.26 20.07L10.33 30.57ZM34.86 35.11L39.14 34.52Q39.31 38.62 40.67 40.14Q42.04 41.65 44.46 41.65Q46.24 41.65 47.53 40.83Q48.83 40.01 49.32 38.61Q49.80 37.21 49.80 
    34.13L49.80 9.47L54.54 9.47L54.54 33.86Q54.54 38.35 53.45 40.82Q52.37 43.29 50.01 44.58Q47.66 45.87 44.48 45.87Q39.77 45.87 37.27 43.16Q34.77 40.45 34.86 35.11ZM58.35 45.26L72.09
     9.47L77.20 9.47L91.85 45.26L86.45 45.26L82.28 34.42L67.31 34.42L63.38 45.26L58.35 45.26M68.68 30.57L80.81 30.57L77.08 20.65Q75.37 16.14 74.54 13.23Q73.85 16.67 72.61 20.07L68.68
      30.57ZM91.99 45.26L105.83 26.61L93.63 9.47L99.27 9.47L105.76 18.65Q107.79 21.51 108.64 23.05Q109.84 21.09 111.47 18.97L118.68 9.47L123.83 9.47L111.25 26.34L124.80 45.26L118.95
       45.26L109.94 32.50Q109.18 31.40 108.37 30.10Q107.18 32.06 106.67 32.79L97.68 45.26L91.99 45.26Z"/>
</g></svg>