<svg xmlns="http://www.w3.org/2000/svg" viewBox="0 8.84000015258789 271.0400085449219 37.25"><g transform="translate(0, 0)">
<path fill="#40f0f1" d="M0 45.26L13.75 9.47L18.85 9.47L33.50 45.26L28.10 45.26L23.93 34.42L8.96 34.42L5.03 45.26L0 45.26M10.33 30.57L22.46 30.57L18.73 20.65Q17.02 16.14 16.19 13.23Q15.50 16.67 
14.26 20.07L10.33 30.57ZM37.28 45.26L37.28 9.47L50.78 9.47Q54.35 9.47 56.23 9.81Q58.86 10.25 60.64 11.49Q62.43 12.72 63.51 14.94Q64.60 17.16 64.60 19.82Q64.60 24.39 61.69 27.55Q58.79 
30.71 51.20 30.71L42.02 30.71L42.02 45.26L37.28 45.26M42.02 26.49L51.27 26.49Q55.86 26.49 57.79 24.78Q59.72 23.07 59.72 19.97Q59.72 17.72 58.58 16.13Q57.45 14.53 55.59 14.01Q54.39 
13.70 51.17 13.70L42.02 13.70L42.02 26.49ZM71.44 45.26L71.44 9.47L76.17 9.47L76.17 45.26L71.44 45.26ZM118.31 41.04Q116.14 43.46 113.57 44.67Q111.01 45.87 108.03 45.87Q102.54 45.87 
99.32 42.16Q96.70 39.14 96.70 35.40Q96.70 32.08 98.84 29.41Q100.98 26.73 105.22 24.71Q102.81 21.92 102.00 20.19Q101.20 18.46 101.20 16.85Q101.20 13.62 103.72 11.24Q106.25 8.86 110.08 
8.86Q113.75 8.86 116.08 11.11Q118.41 13.35 118.41 16.50Q118.41 21.61 111.65 25.22L118.07 33.40Q119.17 31.25 119.78 28.42L124.34 29.39Q123.17 34.08 121.17 37.11Q123.63 40.38 126.76 
42.60L123.80 46.09Q121.14 44.38 118.31 41.04M109.38 22.39Q112.23 20.70 113.07 19.43Q113.92 18.16 113.92 16.63Q113.92 14.79 112.76 13.64Q111.60 12.48 109.86 12.48Q108.08 12.48 106.90 
13.62Q105.71 14.77 105.71 16.43Q105.71 17.26 106.14 18.18Q106.57 19.09 107.42 20.12L109.38 22.39M115.55 37.57L107.50 27.59Q103.93 29.71 102.69 31.53Q101.44 33.35 101.44 35.13Q101.44 
37.30 103.17 39.65Q104.91 41.99 108.08 41.99Q110.06 41.99 112.17 40.76Q114.28 39.53 115.55 37.57ZM143.24 35.11L147.51 34.52Q147.68 38.62 149.05 40.14Q150.42 41.65 152.83 41.65Q154.61
 41.65 155.91 40.83Q157.20 40.01 157.69 38.61Q158.18 37.21 158.18 34.13L158.18 9.47L162.92 9.47L162.92 33.86Q162.92 38.35 161.83 40.82Q160.74 43.29 158.39 44.58Q156.03 45.87 152.86 
 45.87Q148.14 45.87 145.64 43.16Q143.14 40.45 143.24 35.11ZM169.04 33.76L173.51 33.37Q173.83 36.06 174.99 37.78Q176.15 39.50 178.59 40.56Q181.03 41.63 184.08 41.63Q186.79 41.63 188.87 
 40.82Q190.94 40.01 191.96 38.61Q192.97 37.21 192.97 35.55Q192.97 33.86 191.99 32.60Q191.02 31.35 188.77 30.49Q187.33 29.93 182.40 28.75Q177.47 27.56 175.49 26.51Q172.92 25.17 171.67 
 23.18Q170.41 21.19 170.41 18.73Q170.41 16.02 171.95 13.66Q173.49 11.30 176.44 10.08Q179.39 8.86 183.01 8.86Q186.99 8.86 190.03 10.14Q193.07 11.43 194.70 13.92Q196.34 16.41 196.46 
 19.56L191.92 19.90Q191.55 16.50 189.44 14.77Q187.33 13.04 183.20 13.04Q178.91 13.04 176.94 14.61Q174.98 16.19 174.98 18.41Q174.98 20.34 176.37 21.58Q177.73 22.83 183.51 24.13Q189.28 
 25.44 191.43 26.42Q194.56 27.86 196.04 30.07Q197.53 32.28 197.53 35.16Q197.53 38.01 195.90 40.54Q194.26 43.07 191.20 44.47Q188.13 45.87 184.30 45.87Q179.44 45.87 176.16 44.46Q172.88 
 43.04 171.01 40.20Q169.14 37.35 169.04 33.76ZM202.56 27.83Q202.56 18.92 207.35 13.88Q212.13 8.84 219.70 8.84Q224.66 8.84 228.64 11.21Q232.62 13.57 234.70 17.81Q236.79 22.05 236.79 
 27.42Q236.79 32.86 234.59 37.16Q232.40 41.46 228.37 43.66Q224.34 45.87 219.68 45.87Q214.62 45.87 210.64 43.43Q206.67 40.99 204.61 36.77Q202.56 32.54 202.56 27.83M207.45 27.91Q207.45 
 34.38 210.93 38.10Q214.40 41.82 219.65 41.82Q225 41.82 228.45 38.06Q231.91 34.30 231.91 27.39Q231.91 23.02 230.43 19.76Q228.96 16.50 226.11 14.71Q223.27 12.92 219.73 12.92Q214.70 12.92 
 211.07 16.37Q207.45 19.82 207.45 27.91ZM242.85 45.26L242.85 9.47L247.71 9.47L266.50 37.57L266.50 9.47L271.04 9.47L271.04 45.26L266.19 45.26L247.39 17.14L247.39 45.26L242.85 45.26Z"/></g>
 </svg>