<svg xmlns="http://www.w3.org/2000/svg" viewBox="0 0 50 65">
<g fill="#095b1d">
    <path d="M10.25 52.50Q5.15 52.50 2.58 48.70Q0 44.90 0 37.90Q0 30.90 2.58 27.10Q5.15 23.30 10.25 23.30Q12.80 23.30 14.78 24.55Q16.75 25.80 18 27.40L18 21.10L15.05 21.10L15.05 12.90L29.50 12.90L29.50 43.60L31.70 43.60L31.70 51.80L18 51.80L18 48.40Q16.75 50.00 14.78 51.25Q12.80 52.50 10.25 52.50M15.10 43.60Q16.55 43.60 17.28 42.83Q18 42.05 18 40.40L18 35.40Q18 33.75 17.28 32.98Q16.55 32.20 15.10 32.20Q13.65 32.20 12.93 32.98Q12.20 33.75 12.20 35.40L12.20 40.40Q12.20 42.05 12.93 42.83Q13.65 43.60 15.10 43.60ZM35.45 21.25L35.45 12.90L45.65 12.90L45.65 21.25L35.45 21.25M35.10 63.60Q33.05 63.60 30.88 63.25Q28.70 62.90 27.20 62.50L27.20 54.35Q29.55 54.70 31.40 54.70Q35.25 54.70 35.25 51.10L35.25 32.20L31.90 32.20L31.90 24.00L46.75 24.00L46.75 50.10Q46.75 56.95 43.85 60.28Q40.95 63.60 35.10 63.60Z"/>
</g>
</svg>