<svg xmlns="http://www.w3.org/2000/svg" viewBox="0 9.470000267028809 174.72999572753906 45.72999954223633">
<defs/><g><g><g transform="translate(0, 0)">
<path d="M0 45.26L0 9.47L25.88 9.47L25.88 13.70L4.74 13.70L4.74 24.66L24.54 24.66L24.54 28.86L4.74 28.86L4.74 41.04L26.71 41.04L26.71 45.26L0 45.26ZM29.76 45.26L39.23 31.79L30.47 19.34L35.96 19.34L39.94 25.42Q41.06 27.15 41.75 28.32Q42.82 26.71 43.73 25.46L48.10 19.34L53.34 19.34L44.38 31.54L54.03 45.26L48.63 45.26L43.31 37.21L41.89 35.03L35.08 45.26L29.76 45.26ZM57.69 55.20L57.69 19.34L61.69 19.34L61.69 22.71Q63.11 20.73 64.89 19.74Q66.67 18.75 69.21 18.75Q72.53 18.75 75.07 20.46Q77.61 22.17 78.91 25.28Q80.20 28.39 80.20 32.10Q80.20 36.08 78.77 39.27Q77.34 42.46 74.62 44.15Q71.90 45.85 68.90 45.85Q66.70 45.85 64.95 44.92Q63.21 43.99 62.08 42.58L62.08 55.20L57.69 55.20M61.67 32.45Q61.67 37.45 63.70 39.84Q65.72 42.24 68.60 42.24Q71.53 42.24 73.62 39.76Q75.71 37.28 75.71 32.08Q75.71 27.12 73.67 24.66Q71.63 22.19 68.80 22.19Q65.99 22.19 63.83 24.82Q61.67 27.44 61.67 32.45ZM85.45 45.26L85.45 19.34L89.40 19.34L89.40 23.27Q90.92 20.51 92.20 19.63Q93.48 18.75 95.02 18.75Q97.24 18.75 99.54 20.17L98.02 24.24Q96.41 23.29 94.80 23.29Q93.36 23.29 92.21 24.16Q91.06 25.02 90.58 26.56Q89.84 28.91 89.84 31.69L89.84 45.26L85.45 45.26ZM119.90 36.91L124.44 37.48Q123.36 41.46 120.46 43.65Q117.55 45.85 113.04 45.85Q107.35 45.85 104.02 42.35Q100.68 38.84 100.68 32.52Q100.68 25.98 104.05 22.36Q107.42 18.75 112.79 18.75Q117.99 18.75 121.29 22.29Q124.58 25.83 124.58 32.25Q124.58 32.64 124.56 33.42L105.22 33.42Q105.47 37.70 107.64 39.97Q109.81 42.24 113.06 42.24Q115.48 42.24 117.19 40.97Q118.90 39.70 119.90 36.91M105.47 29.81L119.95 29.81Q119.65 26.54 118.29 24.90Q116.19 22.36 112.84 22.36Q109.81 22.36 107.75 24.39Q105.69 26.42 105.47 29.81ZM128.20 37.52L132.54 36.84Q132.91 39.45 134.58 40.84Q136.25 42.24 139.26 42.24Q142.29 42.24 143.75 41.00Q145.21 39.77 145.21 38.11Q145.21 36.62 143.92 35.77Q143.02 35.18 139.43 34.28Q134.59 33.06 132.73 32.17Q130.86 31.27 129.90 29.70Q128.93 28.13 128.93 26.22Q128.93 24.49 129.72 23.01Q130.52 21.53 131.88 20.56Q132.91 19.80 134.68 19.27Q136.45 18.75 138.48 18.75Q141.53 18.75 143.84 19.63Q146.14 20.51 147.24 22.01Q148.34 23.51 148.75 26.03L144.46 26.61Q144.17 24.61 142.76 23.49Q141.36 22.36 138.79 22.36Q135.77 22.36 134.47 23.36Q133.18 24.37 133.18 25.71Q133.18 26.56 133.72 27.25Q134.25 27.95 135.40 28.42Q136.06 28.66 139.28 29.54Q143.95 30.79 145.79 31.58Q147.63 32.37 148.68 33.89Q149.73 35.40 149.73 37.65Q149.73 39.84 148.45 41.78Q147.17 43.73 144.75 44.79Q142.33 45.85 139.28 45.85Q134.23 45.85 131.58 43.75Q128.93 41.65 128.20 37.52ZM153.20 37.52L157.54 36.84Q157.91 39.45 159.58 40.84Q161.25 42.24 164.26 42.24Q167.29 42.24 168.75 41.00Q170.21 39.77 170.21 38.11Q170.21 36.62 168.92 35.77Q168.02 35.18 164.43 34.28Q159.59 33.06 157.73 32.17Q155.86 31.27 154.90 29.70Q153.93 28.13 153.93 26.22Q153.93 24.49 154.72 23.01Q155.52 21.53 156.88 20.56Q157.91 19.80 159.68 19.27Q161.45 18.75 163.48 18.75Q166.53 18.75 168.84 19.63Q171.14 20.51 172.24 22.01Q173.34 23.51 173.75 26.03L169.46 26.61Q169.17 24.61 167.76 23.49Q166.36 22.36 163.79 22.36Q160.77 22.36 159.47 23.36Q158.18 24.37 158.18 25.71Q158.18 26.56 158.72 27.25Q159.25 27.95 160.40 28.42Q161.06 28.66 164.28 29.54Q168.95 30.79 170.79 31.58Q172.63 32.37 173.68 33.89Q174.73 35.40 174.73 37.65Q174.73 39.84 173.45 41.78Q172.17 43.73 169.75 44.79Q167.33 45.85 164.28 45.85Q159.23 45.85 156.58 43.75Q153.93 41.65 153.20 37.52Z"/></g><g transform="translate(0, 60.595703125)"><path d=""/></g></g></g></svg>