<svg xmlns="http://www.w3.org/2000/svg" viewBox="0 0 75 50">
<g fill="#c029e1" stroke="#c029e1" stroke-width="5">
    <path d="M0 45L0 15.45L12.25 15.45L12.25 16.25L0.80 16.25L0.80 29.05L9.70 29.05L9.70 29.85L0.80 29.85L0.80 45L0 45ZM16.55 45L16.55 13.50L17.35 13.50L17.35 45L16.55 45ZM28.75 45.20Q27.60 45.20 26.38 44.80Q25.15 44.40 24.30 43.17Q23.45 41.95 23.45 39.40L23.45 37.70Q23.45 36.10 24.18 34.90Q24.90 33.70 25.93 32.88Q26.95 32.05 27.93 31.52Q28.90 31 29.35 30.75Q31.35 29.65 32.48 28.82Q33.60 28 34.10 27.13Q34.60 26.25 34.60 25L34.60 24.30Q34.60 22.60 33.88 21.85Q33.15 21.10 32.05 20.90Q30.95 20.70 29.80 20.70Q27.60 20.70 26.52 21.45Q25.45 22.20 25.13 23.45Q24.80 24.70 24.80 26.25L24.80 28.30L24 28.30L24 26.15Q24 23.25 25.15 21.57Q26.30 19.90 29.80 19.90Q32.50 19.90 33.67 20.60Q34.85 21.30 35.13 22.42Q35.40 23.55 35.40 24.90L35.40 45L34.65 45L34.65 41.35Q34.05 43.10 32.52 44.15Q31 45.20 28.75 45.20M28.90 44.40Q31.10 44.40 32.33 43.45Q33.55 42.50 34.08 40.85Q34.60 39.20 34.60 37.15L34.60 27.95Q33.80 29.05 32.42 29.88Q31.05 30.70 29.60 31.55Q28.35 32.25 27.13 33.02Q25.90 33.80 25.07 35Q24.25 36.20 24.25 38.10L24.25 39.40Q24.25 41.75 25 42.80Q25.75 43.85 26.85 44.13Q27.95 44.40 28.90 44.40ZM46.45 45.30Q43.85 45.30 42.20 44.05Q40.55 42.80 40.55 40.05L40.55 36.70L41.35 36.70L41.35 40.05Q41.35 42.25 42.78 43.38Q44.20 44.50 46.45 44.50Q48.80 44.50 50.23 43.50Q51.65 42.50 51.65 40.20L51.65 38.30Q51.65 36.40 50.85 35.33Q50.05 34.25 48.83 33.58Q47.60 32.90 46.20 32.30Q44.65 31.60 43.35 30.90Q42.05 30.20 41.28 29.17Q40.50 28.15 40.50 26.50L40.50 24.80Q40.50 22.70 42.10 21.30Q43.70 19.90 46.55 19.90Q49.15 19.90 50.83 21.07Q52.50 22.25 52.50 24.95L52.50 28.20L51.70 28.20L51.70 25.25Q51.70 22.85 50.38 21.77Q49.05 20.70 46.55 20.70Q44.05 20.70 42.68 21.95Q41.30 23.20 41.30 25.25L41.30 26.15Q41.30 27.80 42.15 28.80Q43 29.80 44.20 30.42Q45.40 31.05 46.45 31.55Q47.95 32.20 49.33 32.98Q50.70 33.75 51.58 34.98Q52.45 36.20 52.45 38.30L52.45 40.20Q52.45 42.15 51.60 43.25Q50.75 44.35 49.40 44.83Q48.05 45.30 46.45 45.30ZM57.95 45L57.95 13.50L58.75 13.50L58.75 30.20L60.65 30.20L67.50 20.25L68.45 20.25L61.30 30.65L68.75 45L67.90 45L60.60 31L58.75 31L58.75 45L57.95 45Z"/>
</g>
</svg>