<svg xmlns="http://www.w3.org/2000/svg" viewBox="0 0 36 36">
<g fill="#cccccc"><path d="M 18 1.5 C 8.8838 1.5 1.5 8.8838 1.5 18 C 1.5 25.3012 6.2231 31.468 12.7819 33.6543 C 13.6069 33.7987 13.9162 33.3038 13.9162 32.8705 C 13.9162 32.4787 13.8956 31.1793 13.8956 29.7975 C 9.75 30.5605 8.6775 28.7868 8.3475 27.8588 C 8.1619 27.3843 7.3575 25.92 6.6563 25.5281 C 6.0788 25.2188 5.2538 24.4555 6.6356 24.435 C 7.935 24.4143 8.8631 25.6312 9.1725 26.1262 C 10.6575 28.6218 13.0294 27.9206 13.9781 27.4875 C 14.1225 26.415 14.5556 25.693 15.03 25.2805 C 11.3588 24.8681 7.5225 23.445 7.5225 17.1337 C 7.5225 15.3393 8.1619 13.8544 9.2138 12.6994 C 9.0488 12.2869 8.4712 10.5956 9.3788 8.3269 C 9.3788 8.3269 10.7606 7.8938 13.9162 10.0181 C 15.2363 9.6469 16.6387 9.4612 18.0412 9.4612 C 19.4438 9.4612 20.8463 9.6469 22.1662 10.0181 C 25.322 7.8731 26.7037 8.3269 26.7037 8.3269 C 27.6112 10.5956 27.0338 12.2869 26.8688 12.6994 C 27.9207 13.8544 28.56 15.3188 28.56 17.1337 C 28.56 23.4656 24.7032 24.8681 21.032 25.2805 C 21.63 25.7963 22.1457 26.7863 22.1457 28.3331 C 22.1457 30.54 22.125 32.3137 22.125 32.8705 C 22.125 33.3038 22.4345 33.8193 23.2595 33.6543 C 29.7769 31.468 34.5 25.2805 34.5 18 C 34.5 8.8838 27.1163 1.5 18 1.5 Z"/>
</g>
</svg>