<svg xmlns="http://www.w3.org/2000/svg" viewBox="0 0 100 50">
<g fill="#f84210">
    <path d="M10.18 30.08L19.29 30.08Q20.07 30.08 19.73 31.18Q16.87 40.26 14.07 43.66Q11.28 47.07 7.87 47.35Q4.47 47.63 2.34 45.56Q0.22 43.48 0.02 37.85Q-0.17 32.23 1.60 25.77Q3.37 19.31 6.77 15.30Q10.18 11.28 13.31 10.71Q16.43 10.13 18.15 11.33Q19.87 12.52 20.80 15.30Q21.73 18.07 21.73 19.47Q21.73 20.87 20.73 21.26L18.97 21.78Q18.48 21.88 18.15 21.59Q17.82 21.31 17.75 19.76Q17.68 18.21 16.98 16.59Q16.28 14.97 15.14 14.67Q12.77 14.06 10.00 17.69Q7.23 21.31 5.73 26.79Q4.22 32.28 4.10 36.02Q3.98 39.77 4.75 41.82Q5.52 43.87 7.28 43.75Q9.03 43.63 10.85 41.42Q12.67 39.21 14.43 33.47L9.62 33.47Q8.67 33.47 9.03 32.08L9.42 30.66Q9.62 30.08 10.18 30.08ZM29.44 14.06L29.91 14.06Q30.74 14.06 31.45 14.82Q32.15 15.58 32.15 16.55Q32.15 17.53 31.42 18.23Q30.69 18.92 29.59 18.92L29.20 18.92Q28.34 18.92 27.67 18.20Q27.00 17.48 27.00 16.50Q27.00 15.53 27.70 14.79Q28.39 14.06 29.44 14.06M30.35 22.73L24.29 45.97Q24.00 47.07 22.80 47.07L21.34 47.07Q19.95 47.07 20.24 45.92L26.34 22.68Q26.59 21.68 27.73 21.68L29.39 21.68Q30.05 21.68 30.27 21.90Q30.49 22.12 30.35 22.73ZM42.99 13.96L41.04 21.68L43.63 21.68Q44.73 21.68 44.38 22.78L44.04 24.07Q43.68 25.17 42.72 25.17L40.14 25.17L34.84 45.97Q34.55 47.07 33.33 47.07L32.40 47.07Q31.59 47.07 31.26 46.62Q30.93 46.17 31.08 45.46L36.28 25.17L34.28 25.17Q33.28 25.17 33.64 23.97L34.03 22.63Q34.33 21.68 35.13 21.68L37.13 21.68L39.14 13.92Q39.43 12.82 40.63 12.82L41.89 12.82Q43.29 12.82 42.99 13.96ZM56.30 47.07L42.63 47.07Q42.04 47.07 41.76 46.62Q41.48 46.17 41.63 45.53L50.20 11.96Q50.49 10.86 51.68 10.86L53.15 10.86Q53.74 10.86 54.02 11.32Q54.30 11.77 54.13 12.43L46.19 43.63L57.50 43.63Q57.93 43.63 58.14 43.97Q58.35 44.31 58.23 44.78L57.89 46.02Q57.64 47.07 56.30 47.07ZM75.10 22.68Q75.29 21.51 76.25 21.51L77.39 21.46Q79.22 21.51 78.74 23.27L72.73 43.26Q74.29 42.11 75.83 39.97Q76.39 39.16 77.08 39.62L78.30 40.43Q79.08 40.97 78.54 41.67Q76.49 44.07 74.77 45.40Q73.05 46.73 70.68 47.27Q70.00 47.36 69.78 46.73L68.85 43.97Q67.43 45.83 66.43 46.52Q65.43 47.22 64.89 47.22L64.79 47.22Q64.38 47.22 63.56 46.64Q62.74 46.07 61.94 45.14Q61.13 44.21 60.78 43.12Q60.42 42.02 60.83 39.12Q61.23 36.23 63.11 31.03Q64.99 25.83 66.97 23.78Q68.95 21.73 71.92 21.78Q73.58 21.78 75.10 22.68M74.34 25.46Q71.68 23.97 70.01 25.40Q68.33 26.83 66.74 31.23Q65.14 35.62 64.66 38.12Q64.18 40.63 64.26 41.53Q64.33 42.43 65.14 42.85Q65.94 43.26 67.81 41.21Q69.68 39.16 71.08 35.60Q72.49 32.03 74.34 25.46ZM83.37 43.58Q85.77 45.02 87.51 43.77Q89.26 42.53 90.91 38.02Q92.55 33.52 93.03 30.97Q93.51 28.42 93.43 27.51Q93.36 26.61 92.54 26.20Q91.72 25.78 89.82 27.93Q87.92 30.08 86.54 33.62Q85.16 37.16 83.52 43.12L83.37 43.58M85.77 47.27Q84.11 47.27 82.57 46.31Q82.15 47.07 81.23 47.07L80.37 47.07Q78.61 47.07 78.91 45.46L88.06 10.23Q88.35 9.13 89.58 9.13L90.72 9.13Q92.11 9.13 91.82 10.28L87.48 27.32L88.21 26.07Q89.26 24.32 90.61 23.07Q91.97 21.83 92.82 21.83L92.92 21.83Q93.31 21.83 94.17 22.40Q95.02 22.97 95.84 24.00Q96.66 25.02 96.96 26.15Q97.27 27.27 96.81 30.25Q96.36 33.23 94.46 38.43Q92.55 43.63 90.61 45.45Q88.67 47.27 85.77 47.27Z"/>
</g>
</svg>