<svg xmlns="http://www.w3.org/2000/svg" viewBox="0 0 32 32">

<g fill="#fb2616" stroke="none">
<path d="M 5.0622 -0.0396 c -0.4528 0.037 -1.0164 0.1109 -1.2474 0.1756 c -1.4045 0.4066 -2.6796 1.4414 -3.3172 2.7166 c -0.6838 1.349 -0.656 0.7854 -0.656 12.8713 c 0 7.4197 0.0277 10.9864 0.1016 11.3652 c 0.2033 1.0903 0.9794 2.4116 1.8295 3.1139 c 0.5914 0.4897 1.7926 1.0441 2.5133 1.1642 c 0.8039 0.1386 22.3054 0.1386 22.906 0.0092 c 1.1088 -0.2495 2.347 -0.9425 3.0122 -1.6909 c 0.4712 -0.5452 1.0626 -1.7094 1.2474 -2.4671 c 0.1109 -0.4158 0.1294 -2.5225 0.1109 -11.4576 c -0.0185 -10.7369 -0.0185 -10.9679 -0.2033 -11.6794 c -0.499 -1.8942 -1.811 -3.2617 -3.7514 -3.9085 l -0.7392 -0.2495 l -10.4874 -0.0092 c -5.7658 -0.0092 -10.857 0.0185 -11.319 0.0462 z m 17.3897 9.9977 c -0.037 0.425 -0.0832 1.155 -0.1201 1.617 l -0.0647 0.8593 l -4.8418 0 l -4.851 0 l 0.0554 0.8039 c 0.037 0.4528 0.0832 1.118 0.1109 1.4784 l 0.0554 0.6745 l 4.6108 0 l 4.6108 0 l 0 0.2218 c 0 0.1294 -0.1016 1.5523 -0.231 3.1693 c -0.1201 1.617 -0.268 3.6406 -0.3234 4.5091 c -0.0554 0.8593 -0.1109 1.6078 -0.1201 1.6447 c -0.0092 0.0462 -0.2495 0.1663 -0.5267 0.2864 c -0.6468 0.268 -4.4906 1.9312 -4.8233 2.0882 c -0.231 0.1109 -0.425 0.0462 -2.541 -0.8593 c -1.2566 -0.5359 -2.541 -1.0718 -2.8459 -1.2012 c -0.3604 -0.1571 -0.5636 -0.2864 -0.5821 -0.4066 c -0.1109 -0.8778 -0.3604 -4.5276 -0.3049 -4.583 c 0.0924 -0.0924 3.197 -0.0462 3.2894 0.0462 c 0.037 0.0277 0.1016 0.5914 0.1386 1.2474 c 0.0462 0.6468 0.0832 1.192 0.0924 1.192 c 0.0092 0.0277 1.5893 0.5914 2.0328 0.73 l 0.5082 0.1571 l 1.1088 -0.4528 c 0.6098 -0.2495 1.155 -0.4805 1.2104 -0.5082 c 0.0647 -0.0462 0.1294 -0.656 0.1663 -1.617 c 0.0277 -0.8501 0.0832 -1.811 0.1201 -2.1344 l 0.0554 -0.5729 l -4.4444 0 l -4.4352 0 l -0.0554 -0.5821 c -0.0277 -0.3142 -0.0924 -1.1365 -0.1478 -1.8203 c -0.3881 -5.0173 -0.462 -6.0337 -0.462 -6.3664 l 0 -0.3788 l 6.8006 0 l 6.8099 0 l -0.0554 0.7577 z"/>
</g>
</svg>
