<svg xmlns="http://www.w3.org/2000/svg" viewBox="0 0 32 32">
	<g>
		<path style="fill:#f9f604;" d="M 0 36 V 0 h 36 v 36 H 0 z"/>
		<path style="fill:#000000;" d="M 23.538 26.947 c 0.692 1.124 1.444 2.201 3.037 2.201 c 1.338 0 2.04 -0.665 2.04 -1.585 c 0 -1.101 -0.726 -1.492 -2.198 -2.133 l -0.807 -0.344 c -2.329 -0.988 -3.878 -2.226 -3.878 -4.841 c 0 -2.41 1.845 -4.244 4.728 -4.244 c 2.053 0 3.528 0.711 4.592 2.573 l -2.514 1.607 c -0.553 -0.988 -1.151 -1.377 -2.078 -1.377 c -0.946 0 -1.545 0.597 -1.545 1.377 c 0 0.964 0.6 1.354 1.985 1.951 l 0.807 0.344 C 30.452 23.645 32 24.839 32 27.523 C 32 30.415 29.716 32 26.65 32 c -2.999 0 -4.702 -1.505 -5.65 -3.368 L 23.538 26.947 z M 11.952 27.029 c 0.506 0.906 1.275 1.603 2.381 1.603 c 1.058 0 1.667 -0.418 1.667 -2.043 V 16 h 3.333 v 11.101 c 0 3.367 -1.953 4.899 -4.805 4.899 c -2.577 0 -4.437 -1.746 -5.195 -3.368 L 11.952 27.029 z"/>
	</g>
</svg>