<svg xmlns="http://www.w3.org/2000/svg"  viewBox="0 0 42 42">
<path fill="#388e3c" d="M 13.7632 15.2976 l -3.9256 2.172 C 9.6904 17.5504 9.6 17.7008 9.6 17.8632 v 4.3464 c 0 0.1624 0.0904 0.312 0.2376 0.3936 l 3.9264 2.1736 c 0.1464 0.0808 0.328 0.0808 0.4744 0 l 3.9256 -2.1736 C 18.3096 22.5216 18.4 22.372 18.4 22.2096 v -4.3464 c 0 -0.1624 -0.0904 -0.312 -0.2376 -0.3936 l -3.9248 -2.172 L 14.236 15.295 M 13.764 15.303 L 13.756 18.992 A 1 1 0 0 0 13.844 21.117 A 1 1 0 0 0 14.253 18.992 L 14.236 15.295"/>
<path fill="#388e3c" d="M 28.6008 10.6912 l -1.9112 -1.0664 c -0.06 -0.0336 -0.1336 -0.0328 -0.1928 0.0024 c -0.0592 0.0352 -0.096 0.0984 -0.096 0.1672 L 26.4 16.236 l -1.7624 -0.9752 C 24.564 15.22 24.4816 15.2 24.4 15.2 c -0.0816 0 -0.164 0.02 -0.2376 0.0608 h 0.0008 l -3.9256 2.172 C 20.0904 17.5136 20 17.664 20 17.8256 v 4.3464 c 0 0.1624 0.0904 0.312 0.2376 0.3936 l 3.9264 2.1736 c 0.1464 0.0808 0.328 0.0808 0.4744 0 l 3.9256 -2.1736 C 28.7096 22.4848 28.8 22.3344 28.8 22.172 V 11.0304 C 28.8 10.8896 28.7232 10.76 28.6008 10.6912 z M 26.2928 21.1664 l -1.784 0.988 c -0.0664 0.0368 -0.1488 0.0368 -0.2152 0 l -1.7848 -0.988 C 22.4408 21.1296 22.4 21.0608 22.4 20.9872 v -1.976 c 0 -0.0736 0.0408 -0.1416 0.108 -0.1792 l 1.7848 -0.9872 h -0.0008 c 0.0336 -0.0184 0.0704 -0.0272 0.108 -0.0272 c 0.0376 0 0.0744 0.0096 0.108 0.0272 l 1.784 0.9872 C 26.3592 18.8696 26.4 18.9384 26.4 19.012 v 1.976 C 26.4 21.0608 26.3592 21.1296 26.2928 21.1664 z" />
<path fill="#c3ced4" d="M 38.8024 18.0728 l -3.9248 -2.172 C 34.804 15.86 34.7216 15.84 34.64 15.84 c -0.0816 0 -0.164 0.02 -0.2376 0.0608 h 0.0008 l -3.9256 2.172 C 30.3312 18.1536 30.24 18.3072 30.24 18.4752 v 4.3288 c 0 0.1672 0.0912 0.3216 0.2376 0.4024 l 3.9264 2.1736 c 0.1472 0.0816 0.3272 0.0816 0.4744 0 l 1.8104 -1.0024 c 0.1656 -0.092 0.1648 -0.3296 -0.0016 -0.4208 l -3.9392 -2.1496 C 32.6816 21.7696 32.64 21.7 32.64 21.6248 v -1.9728 c 0 -0.0736 0.04 -0.1416 0.104 -0.1768 l 1.788 -0.9888 h -0.0008 c 0.0336 -0.0184 0.0704 -0.0272 0.108 -0.0272 c 0.0376 0 0.0744 0.0096 0.108 0.0272 l 1.788 0.9896 c 0.064 0.0352 0.104 0.1032 0.104 0.1768 v 1.6096 c 0 0.0688 0.0368 0.1328 0.0968 0.1672 c 0.06 0.0336 0.1336 0.0336 0.1936 -0.0008 l 1.9184 -1.1144 c 0.1184 -0.0688 0.192 -0.196 0.192 -0.3336 v -1.504 C 39.04 18.308 38.9488 18.1536 38.8024 18.0728 z M 9.2024 18.0728 l -3.9248 -2.172 C 5.204 15.86 5.1216 15.84 5.04 15.84 c -0.0816 0 -0.164 0.02 -0.2376 0.0608 h 0.0008 l -3.9256 2.172 C 0.7312 18.1536 0.64 18.3072 0.64 18.4752 v 5.972 c 0 0.0688 0.0368 0.1328 0.0968 0.1672 c 0.06 0.0336 0.1336 0.0336 0.1936 -0.0008 l 1.9184 -1.1144 C 2.9672 23.4304 3.04 23.3032 3.04 23.1656 v -3.5144 c 0 -0.0736 0.04 -0.1416 0.104 -0.1768 l 1.788 -0.9888 H 4.932 c 0.0336 -0.0184 0.0704 -0.0272 0.108 -0.0272 c 0.0376 0 0.0744 0.0096 0.108 0.0272 l 1.788 0.9896 C 7 19.5104 7.04 19.5784 7.04 19.652 v 3.5144 c 0 0.1376 0.0728 0.2648 0.192 0.3336 l 1.9184 1.1144 c 0.06 0.0344 0.1336 0.0344 0.1936 0.0008 C 9.4032 24.58 9.44 24.516 9.44 24.4472 v -5.9712 C 9.44 18.308 9.3488 18.1536 9.2024 18.0728 z"/>
</svg>