<svg xmlns="http://www.w3.org/2000/svg" viewBox="0 0 200 45">
<g fill="none" stroke="#f09977" stroke-width="2">
    <path d="M14.65 8.95Q18.10 9.15 20.38 11.75Q22.65 14.35 22.65 19.55Q22.65 22.95 21.20 24.95Q19.75 26.95 17.85 27.72Q15.95 28.50 14.50 28.50Q13.15 28.50 9.95 28.80Q8.10 29 6.95 29.05Q6.85 33.65 6.85 35.30Q6.85 41.80 7.00 42.35Q7.10 42.85 6.83 43.23Q6.55 43.60 6.13 43.73Q5.70 43.85 5.35 43.70Q5.20 43.65 4.50 43.65Q3.00 43.65 1.30 43.85Q0.50 43.95 0.25 43.52Q0 43.10 0 42.20Q0 41.10 0.05 40.20L0.10 36L0.20 30.10Q0.50 19.50 0.50 13.55Q0.50 11.75 0.45 11.40Q0.35 10.30 0.35 10.10Q0.35 8.80 0.90 8.80Q1.15 8.80 1.93 8.85Q2.70 8.90 4.10 8.90Q4.50 8.90 6.15 8.85Q7.80 8.80 9.60 8.80Q12.25 8.80 14.65 8.95M13.10 24.90Q14.95 24.90 16.55 23.80Q18.15 22.70 18.15 19.85Q18.15 16.80 16.90 15.22Q15.65 13.65 13.25 13.20Q9.50 12.45 7.35 12.60Q7.35 14 7.30 14.70Q7.20 17.50 7.05 18.70Q6.85 20.45 6.95 22.65L7.05 24.60L9.40 24.75Q10.75 24.90 13.10 24.90ZM36.55 8.30Q41.55 8.30 44.05 11.17Q46.55 14.05 47.25 17.97Q47.95 21.90 47.95 26.85Q47.95 30.85 46.75 35.08Q45.55 39.30 43.05 42.20Q40.55 45.10 36.90 45.10Q29.75 45.10 27.40 39.08Q25.05 33.05 25.05 26.15Q25.05 19.50 26.88 15.50Q28.70 11.50 31.32 9.90Q33.95 8.30 36.55 8.30M36.50 32.40Q37.85 32.40 38.50 30.90Q39.15 29.40 39.15 27.30Q39.15 25.30 38.52 23.80Q37.90 22.30 36.85 22.30Q35.60 22.30 34.98 24.02Q34.35 25.75 34.35 27.75Q34.35 29.80 34.75 31.10Q35.15 32.40 36.50 32.40ZM62.70 14.20Q62.50 18.30 62.50 20.35L62.60 27.90Q62.65 29.70 62.65 31.60L62.55 37.05L62.50 38.05L62.55 39.45L62.65 41.20L69.80 41.45L75.75 41.50L75.85 41.50Q76.15 41.50 76.20 41.60Q76.25 41.70 76.22 41.88Q76.20 42.05 76.20 42.15Q76.15 42.35 76.22 42.90Q76.30 43.45 76.30 43.90Q76.30 44.25 76.05 44.35Q75.80 44.45 75.43 44.42Q75.05 44.40 74.85 44.40L72.20 44.25Q68.70 43.95 67.25 43.95Q65.65 43.95 59.15 44.25L54.60 44.40Q53.50 44.40 53.50 43.40L53.50 39.50L53.70 22.75Q53.70 20.85 53.45 15.85L53.25 9.70Q53.25 8.85 53.90 8.85Q54.15 8.85 54.75 9Q55.35 9.15 55.70 9.15Q57.10 9.35 59.05 9.35Q60.40 9.35 61.60 9.20Q62.35 9.10 62.65 9.30Q62.95 9.50 62.95 9.95Q62.95 10.30 62.88 10.67Q62.80 11.05 62.80 11.50L62.70 14.20ZM84.25 10.60Q84.75 12.35 85.55 14.75L85.90 15.90Q86.65 18.45 87.10 19.45Q87.75 20.95 88.50 23.25Q89.30 25.65 89.30 25.65L89.70 24.40Q90.00 23.30 90.40 22.25L90.95 20.75L91.45 19.45Q91.45 19.45 91.95 18.15Q92.35 17.05 92.55 16.70Q92.95 15.90 93.53 14.13Q94.10 12.35 94.40 10.95Q94.65 9.95 95.03 9.70Q95.40 9.45 95.80 9.48Q96.20 9.50 96.30 9.50Q96.45 9.50 97.55 9.48Q98.65 9.45 99.45 9.55Q100.50 9.70 100.50 10.05Q100.50 10.10 100.40 10.50Q100.30 10.75 100.18 11.13Q100.05 11.50 99.90 11.95Q98.70 15.50 98.35 16.30Q97.45 18.50 96.18 21.80Q94.90 25.10 94.00 27.50Q93.40 29.25 91.30 34.45Q89.50 38.75 89.35 39.40Q89.15 40 88.93 41.33Q88.70 42.65 88.60 43.05Q88.35 44.10 87.80 44.05L86.45 44.05Q86.15 44.10 84.45 44.10L82.60 44.15Q82.00 44.15 82.00 43.85Q82.00 43.70 82.08 43.58Q82.15 43.45 82.20 43.30L82.75 41.80Q83.90 38.55 83.95 38.45Q84.05 38.05 84.90 35.75L85.30 34.75Q85.40 34.50 85.60 34.08Q85.80 33.65 85.83 33.38Q85.85 33.10 85.75 32.85Q85.65 32.70 85.30 31.40Q85.20 31.10 84.90 30.07Q84.60 29.05 84.30 28.50Q84.00 27.75 83.50 26.05Q83.15 24.90 82.85 24Q82.05 21.80 80.88 18.35Q79.70 14.90 79.00 12.80Q78.75 12 78.35 11.20Q78.00 10.40 78.00 10.15Q78.00 9.80 78.38 9.67Q78.75 9.55 79.50 9.50Q79.70 9.45 80.30 9.45Q81.05 9.45 81.50 9.50Q83.15 9.50 83.55 9.55Q83.95 9.60 84.08 9.75Q84.20 9.90 84.20 10.15Q84.20 10.40 84.25 10.60ZM111.20 11.40Q111.45 12.75 112.38 15.15Q113.30 17.55 114.15 19.35Q114.85 20.55 116.03 23.22Q117.20 25.90 117.70 27.45Q118.00 28.25 118.55 29.45L119.30 31.25L120.35 33.60Q121.80 30.75 122.45 29.45L125.70 22.95L127.95 18.45Q129.70 14.85 130.30 13.80Q131.25 11.85 132.30 10.17Q133.35 8.50 133.80 8.50Q134.20 8.50 134.20 9.15Q134.20 9.75 133.95 10.75L133.75 12Q133.55 13.35 133.55 24Q133.55 26.35 133.43 29.70Q133.30 33.05 133.20 34.15Q133.10 35.45 133.10 38L133.15 42.85L133.15 43.10Q133.15 43.70 132.85 43.60L132.75 43.60Q132.50 43.60 132.18 43.65Q131.85 43.70 131.50 43.70Q131.30 43.65 131.23 43.45Q131.15 43.25 131.15 42.75L131.15 39.80Q131.15 34.70 131.25 33.80Q131.35 32.75 131.48 29.90Q131.60 27.05 131.60 25.30Q131.55 24.85 131.65 22.50L131.70 20.70L131.80 17.10Q131.45 17.60 131.20 18.15Q130.70 19 130.25 20L129.75 21Q128.90 22.65 127.80 24.88Q126.70 27.10 125.90 28.65Q125.00 30.45 123.63 33.27Q122.25 36.10 121.50 37.75Q120.20 40.80 120.00 40.80Q119.85 40.80 119.55 40.30Q119.25 39.80 119.15 39.65Q118.80 39.10 118.05 37.33Q117.30 35.55 116.85 34.20Q116.55 33.30 114.25 29.15Q112.45 25.70 112.40 25.55Q111.90 24.55 111.05 22.20Q110.50 20.95 110.20 20L110.10 22.20L110.00 25.60L109.90 35.45L109.85 43.25Q109.85 43.70 109.60 43.80Q109.35 43.90 109.00 43.88Q108.65 43.85 108.45 43.85L107.35 43.90Q106.45 44 106.05 44Q105.30 44 105.18 43.67Q105.05 43.35 105.10 42.30Q105.10 40.65 105.05 39.15L104.95 33Q104.95 31.60 105.05 30.07Q105.15 28.55 105.20 27.35Q105.45 23.75 105.45 22.30L105.55 12.90L105.50 10.20Q105.50 8.45 105.75 8.20Q105.90 8.05 106.10 8.05Q106.25 8.05 106.55 8.15Q106.85 8.25 107.30 8.20Q107.75 8.15 108.55 8.15Q109.50 8.15 109.95 8.25Q110.40 8.40 110.60 8.98Q110.80 9.55 110.95 10.27Q111.10 11 111.20 11.40ZM160.35 14.15Q160.35 15.15 160.20 16Q160.15 16.75 159.50 16.75Q159.30 16.75 158.95 16.65Q158.60 16.55 158.40 16.50Q157.65 16.35 154.05 16.35L152.15 16.30Q151.50 16.25 150.25 16.25Q149.35 16.25 148.90 16.30Q147.40 16.40 146.25 16.40L143.60 16.35Q143.20 16.35 143.15 16.52Q143.10 16.70 143.10 17.35Q143.10 18.25 143.05 18.90Q142.95 20.90 142.95 22.15L142.95 25.10Q142.95 26.15 143 26.70Q143.40 26.75 144.35 26.75Q145.20 26.80 147.85 26.80Q148.95 26.80 151.05 26.70Q152.65 26.60 153.15 26.60Q153.85 26.60 154.55 26.68Q155.25 26.75 155.60 26.75Q156.25 26.75 156.25 27.35Q156.25 27.55 156.20 27.93Q156.15 28.30 156.15 28.90L156.20 31.55Q156.20 32 156.10 32.17Q156 32.35 155.75 32.35Q155.60 32.35 155.33 32.27Q155.05 32.20 154.85 32.20Q154.40 32.20 153.18 32.15Q151.95 32.10 149.85 32.10Q147.60 32.10 145.95 32.30Q144.30 32.50 143.95 32.50Q143.40 32.50 143.30 32.45Q143.05 32.45 143 32.40L143 37.40Q143.35 37.40 143.55 37.35L144.95 37.30L150.85 37.25Q152.65 37.25 153.70 37.30L157.15 37.35L159.25 37.30Q159.85 37.30 160.05 37.58Q160.25 37.85 160.25 38.35L160.20 39.35L160.15 42.85Q160.15 43.65 159.80 43.83Q159.45 44 158.80 43.98Q158.15 43.95 157.75 43.95Q155.60 43.95 154.05 43.90L148.95 43.85Q148.35 43.85 142.95 44L141.05 44.05L140.75 44.10Q140.45 44.10 140.40 43.92Q140.35 43.75 140.35 43.25Q140.30 42.70 140.30 41.40Q140.30 41 140.25 40.52Q140.20 40.05 140.20 39.25L140.20 32.40Q140.20 31.40 140.28 30.45Q140.35 29.50 140.35 29.05Q140.55 26.75 140.55 24.65Q140.55 22.05 140.40 20.55Q140.30 18.85 140.30 17.45Q140.30 14.30 140.45 10.10Q140.45 9.45 140.70 9.23Q140.95 9 141.40 9L142.15 9.05Q142.60 9.05 143.60 9.13Q144.60 9.20 146.05 9.20Q147.70 9.20 149.95 8.95Q152.65 8.75 153.55 8.75Q155.60 8.75 157.30 8.90L159.10 8.95Q159.75 8.95 159.95 9.25Q160.15 9.55 160.15 10.35Q160.15 10.80 160.25 11.90Q160.35 13.20 160.35 14.15ZM188.80 42.60Q189.50 43.70 189.50 44.05Q189.50 44.25 189.25 44.30Q189 44.35 188.83 44.35Q188.65 44.35 188.55 44.35L182.90 44.50Q182.50 44.50 182.28 44.15Q182.05 43.80 181.65 42.90Q181.40 42.15 180.75 40.90Q179.75 39.10 177.30 34.15L174.75 29.20L174.90 31.85L175.15 35.65Q175.45 42.35 175.65 43.05Q175.70 43.25 175.70 43.55Q175.70 44.45 174.75 44.45Q174.45 44.45 174.25 44.40Q173.45 44.30 170.35 44.60Q168.25 44.80 167.80 44.80Q167.15 44.80 166.93 44.55Q166.70 44.30 166.70 43.70L166.75 42.55L166.65 39.65Q166.35 34.45 166.35 30.60Q166.35 28.60 166.50 27.85Q166.75 26.60 166.75 20.80Q166.75 14.75 166.55 11.65Q166.50 11.25 166.50 10.55Q166.50 9.75 166.65 9.40Q166.80 9.05 166.98 9.02Q167.15 9 167.60 9L168.70 8.90Q172.15 8.50 174.20 8.50Q179.80 8.50 182.63 11.38Q185.45 14.25 185.45 18.85Q185.45 22.50 183.10 25.85Q182.10 27.30 180.80 28.45L184.30 34.80Q188.15 41.70 188.80 42.60M174.45 22.55Q175.20 22.55 175.80 22.25Q177.20 21.60 177.20 19.60Q177.20 18.15 176.75 17.45Q176.30 16.75 175.60 16.75Q175.05 16.75 174.65 17.15Q174.60 17.20 174.65 17.85Q174.70 18.50 174.70 19.15Q174.70 19.70 174.65 19.95Q174.45 20.80 174.45 21.70L174.40 22.15L174.45 22.55Z"/>
</g>
</svg>