<svg viewBox="0 0 29 29" xmlns="http://www.w3.org/2000/svg">
   <g><path d="M 26.1236 11.5155 c -0.4166 -1.6717 -1.2064 -2.9323 -2.889 -2.9323 h -2.1694 v 2.5644 c 0 1.9909 -1.6881 3.668 -3.6141 3.668 H 11.6732 c -1.5798 0 -2.889 1.3527 -2.889 2.9378 v 5.5076 c 0 1.5688 1.3633 2.4885 2.889 2.9377 c 1.8286 0.5355 3.5868 0.633 5.778 0 c 1.4554 -0.4221 2.8891 -1.2714 2.8891 -2.9377 v -1.1548 H 14.5677 v -1.7829 h 8.6669 c 1.6826 0 2.3047 -1.174 2.889 -2.9323 C 26.7296 15.5784 26.7026 13.8364 26.1236 11.5155 L 26.1236 11.5155 z" 
         style="fill:#4498f0; stroke:#000000; stroke-width:1;"/>
      <path d="M 10.6703 13.2139 h 5.778 c 1.6069 0 2.8891 -1.3256 2.8891 -2.9378 V 4.7632 c 0 -1.5689 -1.3201 -2.7429 -2.8891 -3.008 c -1.9368 -0.3192 -4.0413 -0.303 -5.778 0.0053 c -2.4454 0.4329 -2.889 1.3364 -2.889 3.0081 v 1.1799 H 13.5647 v 1.7577 H 5.6118 c -1.6825 0 -3.1542 1.0117 -3.614 2.9323 c -0.5302 2.2019 -0.5518 3.5761 0 5.8754 c 0.4112 1.7097 1.3904 2.9323 3.073 2.9323 h 1.9856 v -2.6401 C 7.0563 14.8965 8.7064 13.2139 10.6703 13.2139 L 10.6703 13.2139 z"
         style="fill:#eff319; stroke:#000000; stroke-width:1;"/>
   </g>
</svg>