
<svg xmlns="http://www.w3.org/2000/svg" viewBox="0 0 36 36">
<path fill="#CF649A" 
d="M 30.842 15.442 c -1.253 0.007 -2.338 0.308 -3.248 0.756 c -0.336 -0.665 -0.672 -1.246 -0.728 -1.68 c -0.063 -0.504 -0.14 -0.812 -0.063 -1.414 s 0.427 -1.456 0.427 -1.526 c -0.007 -0.063 -0.077 -0.371 -0.798 -0.378 c -0.721 -0.007 -1.344 0.14 -1.414 0.329 s -0.21 0.623 -0.301 1.071 c -0.126 0.658 -1.442 2.989 -2.191 4.214 c -0.245 -0.476 -0.455 -0.896 -0.497 -1.232 c -0.063 -0.504 -0.14 -0.812 -0.063 -1.414 s 0.427 -1.456 0.427 -1.526 c -0.007 -0.063 -0.077 -0.371 -0.798 -0.378 c -0.721 -0.007 -1.344 0.14 -1.414 0.329 s -0.147 0.637 -0.301 1.071 c -0.147 0.434 -1.897 4.326 -2.352 5.341 c -0.231 0.518 -0.434 0.931 -0.581 1.211 s -0.007 0.021 -0.021 0.049 c -0.126 0.238 -0.196 0.371 -0.196 0.371 v 0.007 c -0.098 0.175 -0.203 0.343 -0.252 0.343 c -0.035 0 -0.105 -0.469 0.014 -1.113 c 0.259 -1.351 0.889 -3.458 0.882 -3.535 c 0 -0.035 0.119 -0.406 -0.406 -0.595 c -0.511 -0.189 -0.693 0.126 -0.735 0.126 c -0.042 0 -0.077 0.112 -0.077 0.112 s 0.567 -2.373 -1.085 -2.373 c -1.036 0 -2.464 1.127 -3.171 2.156 c -0.448 0.245 -1.4 0.763 -2.408 1.316 c -0.385 0.21 -0.784 0.434 -1.162 0.637 l -0.077 -0.084 c -2.002 -2.135 -5.705 -3.647 -5.551 -6.517 c 0.056 -1.043 0.42 -3.794 7.112 -7.126 c 5.481 -2.73 9.87 -1.981 10.633 -0.315 c 1.085 2.38 -2.345 6.804 -8.043 7.441 c -2.17 0.245 -3.311 -0.595 -3.598 -0.91 c -0.301 -0.329 -0.343 -0.343 -0.455 -0.28 c -0.182 0.098 -0.07 0.392 0 0.567 c 0.168 0.441 0.868 1.225 2.058 1.617 c 1.043 0.343 3.591 0.532 6.671 -0.658 c 3.451 -1.337 6.146 -5.047 5.355 -8.148 c -0.805 -3.157 -6.041 -4.193 -10.99 -2.436 c -2.947 1.05 -6.139 2.688 -8.435 4.837 c -2.73 2.548 -3.164 4.774 -2.982 5.698 c 0.637 3.297 5.18 5.446 7 7.035 c -0.091 0.049 -0.175 0.098 -0.252 0.14 c -0.91 0.448 -4.375 2.261 -5.243 4.179 c -0.98 2.17 0.154 3.731 0.91 3.941 c 2.338 0.651 4.732 -0.518 6.027 -2.443 c 1.288 -1.925 1.134 -4.424 0.539 -5.565 l -0.021 -0.042 l 0.714 -0.42 c 0.462 -0.273 0.917 -0.525 1.316 -0.742 c -0.224 0.609 -0.385 1.33 -0.469 2.38 c -0.098 1.232 0.406 2.828 1.071 3.458 c 0.294 0.273 0.644 0.28 0.861 0.28 c 0.77 0 1.12 -0.637 1.505 -1.4 c 0.476 -0.931 0.896 -2.009 0.896 -2.009 s -0.525 2.919 0.91 2.919 c 0.525 0 1.05 -0.679 1.288 -1.029 v 0.007 s 0.014 -0.021 0.042 -0.07 c 0.056 -0.084 0.084 -0.133 0.084 -0.133 v -0.014 c 0.21 -0.364 0.679 -1.197 1.379 -2.576 c 0.903 -1.778 1.771 -4.004 1.771 -4.004 s 0.084 0.546 0.343 1.442 c 0.154 0.532 0.49 1.113 0.749 1.68 c -0.21 0.294 -0.336 0.462 -0.336 0.462 l 0.007 0.007 c -0.168 0.224 -0.357 0.462 -0.553 0.7 c -0.714 0.854 -1.568 1.827 -1.68 2.107 c -0.133 0.329 -0.105 0.574 0.154 0.77 c 0.189 0.14 0.525 0.168 0.882 0.14 c 0.644 -0.042 1.092 -0.203 1.316 -0.301 c 0.35 -0.126 0.749 -0.315 1.134 -0.595 c 0.7 -0.518 1.127 -1.253 1.085 -2.233 c -0.021 -0.539 -0.196 -1.071 -0.413 -1.575 c 0.063 -0.091 0.126 -0.182 0.189 -0.28 c 1.106 -1.617 1.96 -3.395 1.96 -3.395 s 0.084 0.546 0.343 1.442 c 0.133 0.455 0.399 0.952 0.637 1.442 c -1.036 0.847 -1.687 1.827 -1.911 2.471 c -0.413 1.19 -0.091 1.729 0.518 1.855 c 0.273 0.056 0.665 -0.07 0.959 -0.196 c 0.364 -0.119 0.805 -0.322 1.211 -0.623 c 0.7 -0.518 1.372 -1.239 1.337 -2.212 c -0.021 -0.448 -0.14 -0.889 -0.301 -1.309 c 0.882 -0.364 2.023 -0.574 3.472 -0.399 c 3.115 0.364 3.731 2.31 3.612 3.122 c -0.119 0.812 -0.77 1.26 -0.987 1.4 c -0.217 0.133 -0.287 0.182 -0.266 0.28 c 0.028 0.147 0.126 0.14 0.315 0.112 c 0.259 -0.042 1.638 -0.665 1.694 -2.163 c 0.084 -1.925 -1.743 -4.025 -4.984 -4.004 z m -24.024 8.099 c -1.029 1.127 -2.478 1.554 -3.094 1.19 c -0.665 -0.385 -0.406 -2.044 0.861 -3.241 c 0.77 -0.728 1.771 -1.4 2.429 -1.813 c 0.147 -0.091 0.371 -0.224 0.637 -0.385 c 0.042 -0.028 0.07 -0.042 0.07 -0.042 c 0.049 -0.028 0.105 -0.063 0.161 -0.098 c 0.469 1.708 0.021 3.206 -1.064 4.389 z m 7.525 -5.117 c -0.357 0.875 -1.113 3.122 -1.568 2.996 c -0.392 -0.105 -0.63 -1.806 -0.077 -3.486 c 0.28 -0.847 0.875 -1.855 1.225 -2.247 c 0.567 -0.63 1.183 -0.84 1.337 -0.581 c 0.182 0.336 -0.693 2.772 -0.917 3.318 z m 6.209 2.968 c -0.154 0.077 -0.294 0.133 -0.357 0.091 c -0.049 -0.028 0.063 -0.133 0.063 -0.133 s 0.777 -0.833 1.085 -1.218 c 0.175 -0.224 0.385 -0.483 0.609 -0.777 v 0.084 c 0 1.008 -0.966 1.68 -1.4 1.953 z m 4.788 -1.092 c -0.112 -0.084 -0.098 -0.343 0.28 -1.155 c 0.147 -0.322 0.483 -0.861 1.064 -1.372 c 0.07 0.21 0.112 0.413 0.105 0.602 c -0.007 1.26 -0.903 1.729 -1.449 1.925 z"/>
</svg>