<svg xmlns="http://www.w3.org/2000/svg" viewBox="0 0 75 50">
<g fill="none" stroke="#f8d810" stroke-width="1">
    <path d="M16.50 3.90Q17.50 3.90 18.80 4.27Q20.10 4.65 20.90 5.50Q21.45 6 20.75 5.80Q20.05 5.70 19.32 5.48Q18.60 5.25 17.75 5.25Q14.65 5.20 13.25 7.02Q11.85 8.85 11.65 11.65Q11.50 13.60 11.73 15.52Q11.95 17.45 12.25 19.35Q12.55 21.25 12.78 23.15Q13 25.05 12.80 27Q12.75 27.55 12.68 27.65Q12.60 27.75 12.53 27.60Q12.45 27.45 12.38 27.17Q12.30 26.90 12.25 26.70Q11.95 24.70 11.50 22.68Q11.05 20.65 10.65 18.60Q10.25 16.55 10.03 14.50Q9.80 12.45 10 10.35Q10.15 9 10.65 7.82Q11.15 6.65 11.98 5.77Q12.80 4.90 13.95 4.40Q15.10 3.90 16.50 3.90M7.60 10.50Q7.75 9.15 8.30 7.77Q8.85 6.40 9.78 5.27Q10.70 4.15 12.03 3.48Q13.35 2.80 15 2.80Q15.05 2.80 15.28 2.82Q15.50 2.85 15.68 2.90Q15.85 2.95 15.83 3Q15.80 3.05 15.45 3.10Q14.10 3.35 12.95 4Q11.80 4.65 10.95 5.60Q10.10 6.55 9.58 7.72Q9.05 8.90 8.95 10.15Q8.75 12.55 9.15 14.97Q9.55 17.40 10.08 19.80Q10.60 22.20 10.97 24.63Q11.35 27.05 11.15 29.45Q11.05 30.40 10.70 31.45Q10.35 32.50 9.78 33.40Q9.20 34.30 8.35 34.92Q7.50 35.55 6.45 35.70Q5.65 35.80 5.78 35.63Q5.90 35.45 6.35 35.20Q8.15 34.20 8.82 32.85Q9.50 31.50 9.70 29.50Q9.90 27.20 9.53 24.80Q9.15 22.40 8.65 20Q8.15 17.60 7.78 15.22Q7.40 12.85 7.60 10.50M6.25 38.20Q8.35 38.20 9.80 37.42Q11.25 36.65 12.20 35.38Q13.15 34.10 13.65 32.42Q14.15 30.75 14.30 28.95Q14.50 26.70 14.20 24.45Q13.90 22.20 13.53 19.97Q13.15 17.75 12.85 15.50Q12.55 13.25 12.75 10.95Q12.95 8.65 14.18 7.30Q15.40 5.95 17.85 5.95Q18.70 5.95 20.03 6.25Q21.35 6.55 22.20 7.10Q23.10 7.70 22.05 7.45Q21.45 7.30 20.50 7.10Q19.55 6.90 19.05 6.90Q17.10 6.90 15.70 7.75Q14.30 8.60 14.10 10.75Q13.85 13.05 14.20 15.32Q14.55 17.60 15 19.90Q15.45 22.20 15.78 24.50Q16.10 26.80 15.90 29.10Q15.75 31 15.15 32.80Q14.55 34.60 13.45 36.05Q12.35 37.50 10.72 38.38Q9.10 39.25 6.90 39.25Q6.30 39.25 5.35 39.05Q4.40 38.85 3.45 38.52Q2.50 38.20 1.68 37.73Q0.85 37.25 0.45 36.70Q0 36.20 0.75 36.45Q1.60 36.90 2.83 37.55Q4.05 38.20 6.25 38.20M5.95 36.45Q7.20 36.45 8.25 36.05Q9.30 35.65 10.40 35L10.40 35.15Q10.40 35.60 9.93 36.02Q9.45 36.45 8.75 36.80Q8.05 37.15 7.18 37.35Q6.30 37.55 5.40 37.55Q5.05 37.55 4.45 37.42Q3.85 37.30 3.23 37.08Q2.60 36.85 2.05 36.55Q1.50 36.25 1.30 35.85Q0.75 35.25 0.95 35.17Q1.15 35.10 1.50 35.35Q2.30 35.60 3.33 36.02Q4.35 36.45 5.95 36.45ZM41.90 35Q43.45 36.60 44.92 38.17Q46.40 39.75 47.95 41.15Q49.50 42.55 51.25 43.73Q53 44.90 55.15 45.65Q55.30 45.75 55.30 45.88Q55.30 46 55 46Q52.70 46 50.48 44.77Q48.25 43.55 46.17 41.58Q44.10 39.60 42.17 37.10Q40.25 34.60 38.48 32.10Q36.70 29.60 35.10 27.32Q33.50 25.05 32.10 23.50Q32.05 23.40 31.98 23.30Q31.90 23.20 31.90 23.10Q32.50 23.35 33.38 24.13Q34.25 24.90 35.13 25.85Q36 26.80 36.77 27.75Q37.55 28.70 38 29.25Q39.65 26.70 40.50 23.67Q41.35 20.65 41.35 17.65Q41.35 16.40 41.15 14.85Q40.95 13.30 40.38 12Q39.80 10.70 38.75 9.80Q37.70 8.90 36 8.90Q34.10 8.90 32.60 9.63Q31.10 10.35 29.93 11.52Q28.75 12.70 27.80 14.15Q26.85 15.60 26.10 17.05Q25.65 17.90 25.80 17Q26.30 15.35 27.27 13.63Q28.25 11.90 29.60 10.52Q30.95 9.15 32.58 8.25Q34.20 7.35 36.10 7.35Q37.95 7.35 39.30 8.38Q40.65 9.40 41.48 10.92Q42.30 12.45 42.70 14.22Q43.10 16 43.10 17.45Q43.10 21 42.05 24.32Q41 27.65 38.95 30.55L40.75 33.35Q43.55 29.85 44.95 25.95Q46.35 22.05 46.35 17.60Q46.35 15.15 45.92 12.75Q45.50 10.35 44.40 8.42Q43.30 6.50 41.40 5.30Q39.50 4.10 36.55 4.10Q33.95 4.10 31.88 5.07Q29.80 6.05 28.23 7.67Q26.65 9.30 25.50 11.42Q24.35 13.55 23.63 15.85Q22.90 18.15 22.57 20.52Q22.25 22.90 22.25 24.95Q22.25 26.40 22.45 27.63Q22.65 28.85 22.80 30Q22.90 30.70 22.73 30.48Q22.55 30.25 22.45 30Q21.75 28.30 21.65 26.32Q21.55 24.35 21.55 22.45Q21.55 18.95 22.40 15.45Q23.25 11.95 25.10 9.13Q26.95 6.30 29.85 4.52Q32.75 2.75 36.90 2.75Q39.80 2.75 41.88 4Q43.95 5.25 45.28 7.25Q46.60 9.25 47.23 11.75Q47.85 14.25 47.85 16.70Q47.85 21.40 46.53 25.75Q45.20 30.10 42.25 33.85Q42.10 34.10 41.95 34.30Q41.80 34.50 41.65 34.75L41.90 35M29.95 24.25Q28.95 24.25 28.30 24.70Q27.65 25.15 27.25 25.85Q26.85 26.55 26.70 27.38Q26.55 28.20 26.55 28.95Q26.55 30.20 26.85 31.57Q27.15 32.95 27.77 34.13Q28.40 35.30 29.45 36.05Q30.50 36.80 32 36.80Q33.30 36.80 34.70 36.30Q34.60 36 34.50 35.70Q34.40 35.40 34.30 35.05Q33.75 35.45 33 35.67Q32.25 35.90 31.55 35.90Q31.10 35.90 30.55 35.67Q30 35.45 29.50 35.08Q29 34.70 28.65 34.23Q28.30 33.75 28.30 33.30L28.30 33.20L28.35 33.20Q28.90 33.85 29.63 34.42Q30.35 35 31.25 35Q32 35 32.67 34.70Q33.35 34.40 33.90 34Q33.45 31.90 32.75 29.95Q32.05 28 31.30 25.95Q31.05 25.50 31.15 25.45Q31.25 25.40 31.50 25.75Q32.85 27.50 33.63 29.38Q34.40 31.25 35.25 33.20Q36.30 35.65 37.80 37.75Q39.30 39.85 41 41.65Q42.75 43.60 44.55 44.85Q46.35 46.10 48.70 47.30Q48.90 47.40 48.88 47.45Q48.85 47.50 48.70 47.52Q48.55 47.55 48.38 47.55Q48.20 47.55 48.15 47.55Q46.70 47.55 44.98 46.52Q43.25 45.50 41.60 44.13Q39.95 42.75 38.52 41.30Q37.10 39.85 36.25 39L36.15 38.90Q35.15 39.15 34.17 39.20Q33.20 39.25 32.20 39.25Q30.10 39.25 28.52 38.58Q26.95 37.90 25.90 36.70Q24.85 35.50 24.35 33.88Q23.85 32.25 23.85 30.35Q23.85 29.45 24.02 28.42Q24.20 27.40 24.55 26.45Q24.90 25.50 25.48 24.67Q26.05 23.85 26.80 23.30Q26.90 23.25 26.95 23.20Q27.05 23.10 27.10 23.10Q27.20 23.10 27.20 23.15Q27.20 23.30 27 23.52Q26.80 23.75 26.70 23.85Q25.70 25 25.20 26.55Q24.70 28.10 24.70 29.60Q24.70 31.20 25.18 32.80Q25.65 34.40 26.57 35.67Q27.50 36.95 28.90 37.75Q30.30 38.55 32.10 38.55Q33 38.55 33.85 38.33Q34.70 38.10 35.50 37.80L34.95 36.90Q34.25 37.25 33.50 37.45Q32.75 37.65 32 37.65Q30.25 37.65 29.02 36.80Q27.80 35.95 27 34.63Q26.20 33.30 25.82 31.75Q25.45 30.20 25.45 28.75Q25.45 27.85 25.68 26.90Q25.90 25.95 26.38 25.20Q26.85 24.45 27.65 23.98Q28.45 23.50 29.60 23.50Q30.65 23.50 31.80 24.50Q32.95 25.50 33.92 26.88Q34.90 28.25 35.52 29.67Q36.15 31.10 36.15 32L36 32.25Q35.85 32.30 35.70 32.15Q35.55 32 35.45 31.80Q35.35 31.60 35.27 31.40Q35.20 31.20 35.15 31.10Q34.85 30.45 34.38 29.30Q33.90 28.15 33.25 27.02Q32.60 25.90 31.77 25.07Q30.95 24.25 29.95 24.25M23.15 27Q23.10 26.45 23.10 25.85Q23.10 25.25 23.10 24.75Q23.10 21.70 23.77 18.25Q24.45 14.80 26.02 11.85Q27.60 8.90 30.18 6.95Q32.75 5 36.50 5Q39 5 40.67 6.07Q42.35 7.15 43.35 8.85Q44.35 10.55 44.78 12.65Q45.20 14.75 45.20 16.80Q45.20 19.20 44.83 21.32Q44.45 23.45 43.50 25.55Q43.15 26.35 43.08 26.30Q43 26.25 43.15 25.50Q43.55 23.70 43.80 21.90Q44.05 20.10 44.05 18.20Q44.05 16.50 43.75 14.42Q43.45 12.35 42.63 10.55Q41.80 8.75 40.38 7.55Q38.95 6.35 36.70 6.35Q34.30 6.40 32.48 7.23Q30.65 8.05 29.25 9.47Q27.85 10.90 26.88 12.75Q25.90 14.60 25.25 16.70Q24.40 19.30 24.07 21.97Q23.75 24.65 23.50 27.05Q23.40 27.85 23.32 27.73Q23.25 27.60 23.15 27M38.35 35.70Q38.70 35.95 39.38 36.52Q40.05 37.10 40.80 37.75Q41.55 38.40 42.20 39Q42.85 39.60 43.10 39.90Q43.90 40.80 45.17 41.85Q46.45 42.90 47.90 43.83Q49.35 44.75 50.80 45.48Q52.25 46.20 53.40 46.45Q53.90 46.55 53.80 46.65Q53.70 46.75 53.35 46.83Q53 46.90 52.60 46.95Q52.20 47 52.10 47Q50 47 47.92 45.98Q45.85 44.95 44 43.42Q42.15 41.90 40.73 40.08Q39.30 38.25 38.55 36.65Q38.50 36.55 38.42 36.30Q38.35 36.05 38.35 35.95L38.35 35.70ZM58.55 13.85Q57.85 16.55 56.83 19.45Q55.80 22.35 54.70 24.95Q54.65 25.05 54.45 25.42Q54.25 25.80 54.15 25.75Q54.00 25.75 54.03 25.32Q54.05 24.90 54.10 24.75Q54.15 24.15 54.33 23.25Q54.50 22.35 54.68 21.40Q54.85 20.45 55.08 19.55Q55.30 18.65 55.50 18Q55.65 17.55 56.05 15.75Q56.45 13.95 56.83 11.75Q57.20 9.55 57.40 7.50Q57.60 5.45 57.40 4.50Q57.30 4.05 57.40 4.05Q57.50 4.05 57.58 4.17Q57.65 4.30 57.75 4.40Q58.30 5.25 58.60 6.45Q58.90 7.65 58.98 8.97Q59.05 10.30 58.93 11.60Q58.80 12.90 58.55 13.85M56.30 3.15Q57.00 5.55 56.75 8.13Q56.50 10.70 55.78 13.40Q55.05 16.10 54.15 18.90Q53.25 21.70 52.60 24.45Q52.00 27.05 51.78 29.60Q51.55 32.15 52.10 34.80Q52.25 34.55 52.43 34.45Q52.60 34.35 52.80 34.20Q52.80 33.60 52.80 32.98Q52.80 32.35 52.85 31.85Q52.90 31.35 53.00 31.05Q53.10 30.75 53.30 30.75Q53.35 30.75 53.43 31Q53.50 31.25 53.55 31.57Q53.60 31.90 53.65 32.23Q53.70 32.55 53.70 32.65Q53.75 33.05 53.75 33.25Q53.75 33.45 53.85 33.70Q53.95 33.65 54.18 33.58Q54.40 33.50 54.65 33.45Q54.90 29.85 55.80 26.27Q56.70 22.70 57.80 19.05Q58.50 16.70 59.13 14.22Q59.75 11.75 59.85 8.90Q59.85 8.65 60.00 8.65Q60.05 8.65 60.05 8.75Q60.05 8.85 60.15 8.95Q60.70 10.30 60.55 12.47Q60.40 14.65 59.95 16.97Q59.50 19.30 58.90 21.47Q58.30 23.65 58.00 24.95Q57.45 27.05 56.75 29.23Q56.05 31.40 55.40 33.30Q56.35 33.15 57.43 33.10Q58.50 33.05 59.40 33.08Q60.30 33.10 60.98 33.13Q61.65 33.15 61.85 33.15Q63.30 33.20 64.85 33.50Q66.40 33.80 67.55 34Q67.95 34.10 67.95 34.20Q67.95 34.30 67.80 34.35Q67.65 34.40 67.55 34.45Q65.35 35.15 63.13 35.02Q60.90 34.90 58.50 34.65Q57.60 34.55 56.63 34.50Q55.65 34.45 54.70 34.52Q53.75 34.60 52.88 34.88Q52.00 35.15 51.30 35.75Q50.20 32.90 50.35 29.75Q50.50 26.60 51.25 23.45Q51.90 20.70 52.75 17.97Q53.60 15.25 54.33 12.67Q55.05 10.10 55.53 7.70Q56.00 5.30 55.95 3.10Q56.05 2.80 56.10 2.80Q56.15 2.75 56.20 2.92Q56.25 3.10 56.30 3.15M70.25 33Q70.35 32.85 70.43 33.02Q70.50 33.20 70.40 33.45Q70.10 34.20 69.83 34.75Q69.55 35.30 68.75 35.85Q68.40 36.10 67.90 36.30Q67.40 36.50 66.95 36.60Q66.50 36.70 66.15 36.70Q65.80 36.70 65.80 36.50Q65.75 36.35 66.23 36.10Q66.70 35.85 66.90 35.75Q67.30 35.50 67.70 35.27Q68.10 35.05 68.50 34.75Q68.90 34.35 69.38 33.95Q69.85 33.55 70.25 33M70.50 34.50Q70.65 34.25 70.65 34.45Q70.65 34.65 70.60 34.75Q69.85 36.45 68.88 37.35Q67.90 38.25 66.78 38.67Q65.65 39.10 64.43 39.17Q63.20 39.25 62.00 39.25Q58.65 39.20 55.48 38.98Q52.30 38.75 49.75 39.25Q49.65 39.25 49.55 39.27Q49.45 39.30 49.65 39.15Q50.85 37.95 52.35 37.70Q53.85 37.45 55.53 37.63Q57.20 37.80 58.95 38.15Q60.70 38.50 62.35 38.55Q64.45 38.60 66.68 37.67Q68.90 36.75 70.50 34.50M62.85 36.80Q62.85 36.90 62.65 36.95Q62.45 37 62.35 37Q61.60 37.15 60.33 37.20Q59.05 37.25 58.00 37.15Q57.75 37.15 56.85 37.08Q55.95 37 54.78 37.02Q53.60 37.05 52.40 37.30Q51.20 37.55 50.35 38.15Q50.15 38.35 50.05 38.20Q50.05 38.15 50.13 37.98Q50.20 37.80 50.25 37.75Q50.95 36.65 52.43 36.08Q53.90 35.50 55.40 35.35Q57.00 35.20 58.85 35.52Q60.70 35.85 62.35 36.35Q62.40 36.35 62.63 36.50Q62.85 36.65 62.85 36.80Z"/>
</g>
</svg>