<svg xmlns="http://www.w3.org/2000/svg" viewBox="0 0 65 45">
<g fill="#5db0f3">
    <path d="M0 1.00L28.00 1.00L28.00 6.01L16.50 6.01L16.50 36.01L11.50 36.01L11.50 6.01L0 6.01L0 1.00ZM39.01 21.02Q37.99 21.02 37.07 20.62Q36.16 20.21 35.47 19.54Q34.79 18.87 34.40 17.96Q34.01 17.04 34.01 16.02L34.01 6.01Q34.01 4.98 34.40 4.06Q34.79 3.15 35.47 2.48Q36.16 1.81 37.07 1.40Q37.99 1.00 39.01 1.00L56.01 1.00Q57.03 1.00 57.95 1.40Q58.86 1.81 59.55 2.48Q60.23 3.15 60.62 4.06Q61.01 4.98 61.01 6.01L61.01 10.52L56.01 10.52L56.01 6.01L39.01 6.01L39.01 16.02L56.01 16.02Q57.03 16.02 57.95 16.41Q58.86 16.80 59.55 17.48Q60.23 18.16 60.62 19.08Q61.01 20.00 61.01 21.02L61.01 31.01Q61.01 32.03 60.62 32.95Q60.23 33.86 59.55 34.55Q58.86 35.23 57.95 35.62Q57.03 36.01 56.01 36.01L38.53 36.01Q37.50 36.01 36.58 35.62Q35.67 35.23 34.99 34.55Q34.30 33.86 33.91 32.95Q33.52 32.03 33.52 31.01L33.52 26.51L38.53 26.51L38.53 31.01L56.01 31.01L56.01 21.02L39.01 21.02Z"/>
</g>
</svg>