<svg xmlns="http://www.w3.org/2000/svg" viewBox="0 0 34 32">
<path style="fill:#139d3d;" d="M 16.7896 7.2 l -4.0752 -6.9816 C 12.636 0.0832 12.4912 0 12.3344 0 H 0.7448 C 0.4056 0 0.1944 0.368 0.3656 0.6616 l 16.0448 27.488 c 0.1696 0.2904 0.5896 0.2904 0.7592 0 l 16.0448 -27.488 C 33.3848 0.368 33.1736 0 32.8344 0 H 21.2448 c -0.156 0 -0.3008 0.0832 -0.38 0.2184 L 16.7896 7.2 z"/>
<path style="fill:#254e36;" d="M 27.408 0.2016 l -10.2728 17.6 l -0.3456 0.592 l -0.3456 -0.592 l -10.2728 -17.6 L 6.0536 0 H 5.5904 l 0.2352 0.4032 l 10.2728 17.6 l 0.6912 1.184 l 0.6912 -1.184 l 10.2728 -17.6 L 27.9888 0 h -0.4632 L 27.408 0.2016 z M 27.0624 0.8 h 0.004 H 27.0624 z"/>
</svg>