
<svg viewBox="0 0 37 37" xmlns="http://www.w3.org/2000/svg">
<path d="m 18 0 l 15.909 9 v 18 l -15.909 9 l -15.909 -9 v -18 z" fill="#ffffff"/>
<path d="m 31.068 26.379 l -12.543 7.095 v -5.526 l 7.815 -4.299 z m 0.858 -0.777 v -14.838 l -4.59 2.649 v 9.537 z m -27.045 0.777 l 12.543 7.095 v -5.526 l -7.815 -4.299 z m -0.858 -0.777 v -14.838 l 4.59 2.649 v 9.537 z m 0.537 -15.798 l 12.864 -7.278 v 5.343 l -8.241 4.533 l -0.063 0.036 z m 26.829 0 l -12.864 -7.278 v 5.343 l 8.241 4.533 l 0.063 0.036 z" fill="#8ed6fb"/>
<path d="m 17.424 26.691 l -7.71 -4.239 v -8.4 l 7.71 4.452 z m 1.101 0 l 7.71 -4.239 v -8.4 l -7.71 4.452 z m -8.289 -13.611 l 7.74 -4.257 l 7.74 4.257 l -7.74 4.47 z" fill="#1c78c0"/>
</svg>