<svg xmlns="http://www.w3.org/2000/svg" viewBox="0 0 50 50">
<g transform="translate(0, 0)" fill="#e39912">
<path d="M9.50 45.26L0 9.47L4.86 9.47L10.30 32.93Q11.18 36.62 11.82 40.26Q13.18 34.52 13.43 33.64L20.24 9.47L25.95 9.47L31.08 27.59Q33.01 34.33 33.86 40.26Q34.55 36.87 35.64 32.47L41.26 9.47L46.02 9.47L36.21 45.26L31.64 45.26L24.10 17.99Q23.14 14.58 22.97 13.79Q22.41 16.26 21.92 17.99L14.33 45.26L9.50 45.26ZM50.54 45.26L50.54 9.47L76.42 9.47L76.42 13.70L55.27 13.70L55.27 24.66L75.07 24.66L75.07 28.86L55.27 28.86L55.27 41.04L77.25 41.04L77.25 45.26L50.54 45.26ZM83.59 45.26L83.59 9.47L97.02 9.47Q101.12 9.47 103.60 10.56Q106.08 11.65 107.48 13.90Q108.89 16.16 108.89 18.63Q108.89 20.92 107.64 22.95Q106.40 24.98 103.88 26.22Q107.13 27.17 108.87 29.47Q110.62 31.76 110.62 34.89Q110.62 37.40 109.56 39.56Q108.50 41.72 106.93 42.90Q105.37 44.07 103.02 44.67Q100.66 45.26 97.24 45.26L83.59 45.26M88.33 24.51L96.07 24.51Q99.22 24.51 100.59 24.10Q102.39 23.56 103.31 22.31Q104.22 21.07 104.22 19.19Q104.22 17.41 103.37 16.05Q102.51 14.70 100.93 14.20Q99.34 13.70 95.48 13.70L88.33 13.70L88.33 24.51M88.33 41.04L97.24 41.04Q99.54 41.04 100.46 40.87Q102.10 40.58 103.20 39.89Q104.30 39.21 105.00 37.90Q105.71 36.60 105.71 34.89Q105.71 32.89 104.69 31.41Q103.66 29.93 101.84 29.33Q100.02 28.74 96.61 28.74L88.33 28.74L88.33 41.04ZM129.42 33.76L133.89 33.37Q134.20 36.06 135.36 37.78Q136.52 39.50 138.96 40.56Q141.41 41.63 144.46 41.63Q147.17 41.63 149.24 40.82Q151.32 40.01 152.33 38.61Q153.34 37.21 153.34 35.55Q153.34 33.86 152.37 32.60Q151.39 31.35 149.15 30.49Q147.71 29.93 142.77 28.75Q137.84 27.56 135.86 26.51Q133.30 25.17 132.04 23.18Q130.79 21.19 130.79 18.73Q130.79 16.02 132.32 13.66Q133.86 11.30 136.82 10.08Q139.77 8.86 143.38 8.86Q147.36 8.86 150.40 10.14Q153.44 11.43 155.08 13.92Q156.71 16.41 156.84 19.56L152.29 19.90Q151.93 16.50 149.82 14.77Q147.71 13.04 143.58 13.04Q139.28 13.04 137.32 14.61Q135.35 16.19 135.35 18.41Q135.35 20.34 136.74 21.58Q138.11 22.83 143.88 24.13Q149.66 25.44 151.81 26.42Q154.93 27.86 156.42 30.07Q157.91 32.28 157.91 35.16Q157.91 38.01 156.27 40.54Q154.64 43.07 151.57 44.47Q148.51 45.87 144.68 45.87Q139.82 45.87 136.54 44.46Q133.25 43.04 131.38 40.20Q129.52 37.35 129.42 33.76ZM162.94 27.83Q162.94 18.92 167.72 13.88Q172.51 8.84 180.08 8.84Q185.03 8.84 189.01 11.21Q192.99 13.57 195.08 17.81Q197.17 22.05 197.17 27.42Q197.17 32.86 194.97 37.16Q192.77 41.46 188.75 43.66Q184.72 45.87 180.05 45.87Q175 45.87 171.02 43.43Q167.04 40.99 164.99 36.77Q162.94 32.54 162.94 27.83M167.82 27.91Q167.82 34.38 171.30 38.10Q174.78 41.82 180.03 41.82Q185.38 41.82 188.83 38.06Q192.29 34.30 192.29 27.39Q192.29 23.02 190.81 19.76Q189.33 16.50 186.49 14.71Q183.64 12.92 180.10 12.92Q175.07 12.92 171.45 16.37Q167.82 19.82 167.82 27.91ZM228.81 32.71L233.54 33.91Q232.06 39.75 228.19 42.81Q224.32 45.87 218.73 45.87Q212.94 45.87 209.31 43.52Q205.69 41.16 203.80 36.69Q201.90 32.23 201.90 27.10Q201.90 21.51 204.04 17.35Q206.18 13.18 210.12 11.02Q214.06 8.86 218.80 8.86Q224.17 8.86 227.83 11.60Q231.49 14.33 232.93 19.29L228.27 20.39Q227.03 16.48 224.66 14.70Q222.29 12.92 218.70 12.92Q214.58 12.92 211.80 14.89Q209.03 16.87 207.91 20.20Q206.79 23.54 206.79 27.08Q206.79 31.64 208.12 35.05Q209.45 38.45 212.26 40.14Q215.06 41.82 218.33 41.82Q222.31 41.82 225.07 39.53Q227.83 37.23 228.81 32.71ZM239.18 45.26L239.18 9.47L243.92 9.47L243.92 27.22L261.69 9.47L268.12 9.47L253.10 23.97L268.77 45.26L262.52 45.26L249.78 27.15L243.92 32.86L243.92 45.26L239.18 45.26ZM272.83 45.26L272.83 9.47L298.71 9.47L298.71 13.70L277.56 13.70L277.56 24.66L297.36 24.66L297.36 28.86L277.56 28.86L277.56 41.04L299.54 41.04L299.54 45.26L272.83 45.26ZM315.19 45.26L315.19 13.70L303.39 13.70L303.39 9.47L331.76 9.47L331.76 13.70L319.92 13.70L319.92 45.26L315.19 45.26ZM335.01 33.76L339.48 33.37Q339.79 36.06 340.95 37.78Q342.11 39.50 344.56 40.56Q347.00 41.63 350.05 41.63Q352.76 41.63 354.83 40.82Q356.91 40.01 357.92 38.61Q358.94 37.21 358.94 35.55Q358.94 33.86 357.96 32.60Q356.98 31.35 354.74 30.49Q353.30 29.93 348.36 28.75Q343.43 27.56 341.46 26.51Q338.89 25.17 337.63 23.18Q336.38 21.19 336.38 18.73Q336.38 16.02 337.92 13.66Q339.45 11.30 342.41 10.08Q345.36 8.86 348.97 8.86Q352.95 8.86 355.99 10.14Q359.03 11.43 360.67 13.92Q362.30 16.41 362.43 19.56L357.89 19.90Q357.52 16.50 355.41 14.77Q353.30 13.04 349.17 13.04Q344.87 13.04 342.91 14.61Q340.94 16.19 340.94 18.41Q340.94 20.34 342.33 21.58Q343.70 22.83 349.48 24.13Q355.25 25.44 357.40 26.42Q360.52 27.86 362.01 30.07Q363.50 32.28 363.50 35.16Q363.50 38.01 361.87 40.54Q360.23 43.07 357.17 44.47Q354.10 45.87 350.27 45.87Q345.41 45.87 342.13 44.46Q338.84 43.04 336.98 40.20Q335.11 37.35 335.01 33.76Z"/>
</g></svg>